<svg xmlns="http://www.w3.org/2000/svg" viewBox="0 0 145.83 99.92"><text transform="translate(0 93.86)" font-size="22.62" font-family="Optima-Bold, Optima" font-weight="700"><tspan letter-spacing="-0.05em">P</tspan><tspan x="11.33" y="0">APER PROOF</tspan></text><path d="M67.57,2.52h4.19V33.38a8.37,8.37,0,0,0,0,16.51V66.77C66.24,61.06,59.9,57,52.2,55.6V31.85C56.39,30.46,66.17,15.09,67.57,2.52Z" transform="translate(-2.17 -2.52)"/><path d="M77.35,2.52H73.16V33.38a8.37,8.37,0,0,1,0,16.51V66.77C78.67,61.06,85,57,92.71,55.6V31.85C88.52,30.46,78.74,15.09,77.35,2.52Z" transform="translate(-2.17 -2.52)"/><path d="M73.85,74.06C83.63,64.28,106,64.28,106,64.28c-2.79-2.79-4.19-5.59-3.49-10.48C85,55.61,74.86,64.66,72.38,67.13c-2-2-12.25-11.69-30.35-13.56.7,4.89-.7,7.68-3.49,10.47,0,0,22.74.24,32.52,10Z" transform="translate(-2.17 -2.52)" fill="none" stroke="#000" stroke-miterlimit="10"/><path d="M89.22,60.09c3.45-1.73,8-2.62,13.1-3.51" transform="translate(-2.17 -2.52)" fill="none" stroke="#000" stroke-miterlimit="10" stroke-width="0.5"/><path d="M102.32,58.33a36.59,36.59,0,0,0-11.71,3.16" transform="translate(-2.17 -2.52)" fill="none" stroke="#000" stroke-miterlimit="10" stroke-width="0.5"/><path d="M90.61,62.88a30.94,30.94,0,0,1,12.58-2.79" transform="translate(-2.17 -2.52)" fill="none" stroke="#000" stroke-miterlimit="10" stroke-width="0.5"/><rect x="66.8" y="70.84" width="6.98" height="2.79"/><path d="M109.74,38.67" transform="translate(-2.17 -2.52)"/><path d="M55.75,60c-3.45-1.73-8-2.62-13.1-3.51" transform="translate(-2.17 -2.52)" fill="none" stroke="#000" stroke-miterlimit="10" stroke-width="0.5"/><path d="M42.65,58.26a36.59,36.59,0,0,1,11.71,3.16" transform="translate(-2.17 -2.52)" fill="none" stroke="#000" stroke-miterlimit="10" stroke-width="0.5"/><path d="M54.36,62.81A30.93,30.93,0,0,0,41.79,60" transform="translate(-2.17 -2.52)" fill="none" stroke="#000" stroke-miterlimit="10" stroke-width="0.5"/></svg>